<svg width="12" height="13" viewBox="0 0 12 13" fill="none" xmlns="http://www.w3.org/2000/svg">
<mask id="mask0_156_1590" style="mask-type:alpha" maskUnits="userSpaceOnUse" x="0" y="1" width="12" height="11">
<path fill-rule="evenodd" clip-rule="evenodd" d="M0.96967 1.46979C1.26256 1.1769 1.73744 1.1769 2.03033 1.46979L11.0303 10.4696C11.3232 10.7625 11.3232 11.2374 11.0303 11.5303C10.7374 11.8232 10.2626 11.8232 9.96967 11.5303L0.96967 2.53043C0.676777 2.23754 0.676777 1.76268 0.96967 1.46979Z" fill="#006FFD"/>
<path fill-rule="evenodd" clip-rule="evenodd" d="M11.0303 1.46979C10.7374 1.1769 10.2626 1.1769 9.96967 1.46979L0.96967 10.4696C0.676777 10.7625 0.676777 11.2374 0.96967 11.5303C1.26256 11.8232 1.73744 11.8232 2.03033 11.5303L11.0303 2.53043C11.3232 2.23754 11.3232 1.76268 11.0303 1.46979Z" fill="#006FFD"/>
</mask>
<g mask="url(#mask0_156_1590)">
<rect y="0.500122" width="12" height="11.9998" fill="#71727A"/>
</g>
</svg>
