<svg width="24" height="25" viewBox="0 0 24 25" fill="none" xmlns="http://www.w3.org/2000/svg">
<mask id="mask0_156_1663" style="mask-type:alpha" maskUnits="userSpaceOnUse" x="1" y="1" width="22" height="23">
<ellipse cx="12.0002" cy="12.5" rx="11.0002" ry="11" fill="#D9D9D9"/>
</mask>
<g mask="url(#mask0_156_1663)">
<rect y="0.5" width="24.0004" height="24" fill="#FF616D"/>
</g>
<path d="M11.4474 6.56006C11.6217 6.48331 11.8101 6.44375 12.0006 6.44391C12.1909 6.44396 12.3791 6.48367 12.5532 6.56051C12.7273 6.63735 12.8835 6.74964 13.0118 6.89021C13.1401 7.03079 13.2377 7.19655 13.2983 7.37694C13.359 7.55733 13.3814 7.74838 13.3641 7.93791L12.8181 13.9469C12.7968 14.1489 12.7015 14.3359 12.5506 14.4719C12.3996 14.6078 12.2037 14.683 12.0006 14.683C11.7974 14.683 11.6015 14.6078 11.4505 14.4719C11.2996 14.3359 11.2043 14.1489 11.1831 13.9469L10.6356 7.93791C10.6182 7.74826 10.6407 7.55708 10.7014 7.37659C10.7622 7.19609 10.8599 7.03026 10.9883 6.88966C11.1168 6.74907 11.2732 6.63681 11.4474 6.56006Z" fill="white"/>
<path d="M13.3091 17.2477C13.3091 17.9703 12.7233 18.5562 12.0006 18.5562C11.278 18.5562 10.6921 17.9703 10.6921 17.2477C10.6921 16.525 11.278 15.9392 12.0006 15.9392C12.7233 15.9392 13.3091 16.525 13.3091 17.2477Z" fill="white"/>
</svg>
